<svg width="41" height="41" viewBox="0 0 41 41" fill="none" xmlns="http://www.w3.org/2000/svg">
<path d="M20.5003 37.5832C15.9695 37.5832 11.6244 35.7833 8.42062 32.5796C5.21688 29.3758 3.41699 25.0306 3.41699 20.4998C3.41699 15.9691 5.21688 11.6239 8.42062 8.42011C11.6244 5.21636 15.9695 3.4165 20.5003 3.4165C25.0311 3.4165 29.3763 5.21636 32.58 8.42011C35.7838 11.6239 37.5837 15.9691 37.5837 20.4998" stroke="white" stroke-width="2" stroke-miterlimit="10"/>
<path d="M3.41699 20.4998H26.4795C26.4795 11.0528 23.7974 3.4165 20.5003 3.4165C17.2032 3.4165 14.5212 11.0528 14.5212 20.4998C14.5212 29.9469 17.2032 37.5832 20.5003 37.5832" stroke="white" stroke-width="2" stroke-linejoin="round"/>
<path d="M30.75 23.9165C29.3908 23.9165 28.0872 24.4565 27.126 25.4176C26.1649 26.3787 25.625 27.6823 25.625 29.0415C25.625 34.269 30.75 37.5832 30.75 37.5832C30.75 37.5832 35.875 34.269 35.875 29.0415C35.875 27.6823 35.3351 26.3787 34.374 25.4176C33.4128 24.4565 32.1092 23.9165 30.75 23.9165V23.9165Z" stroke="white" stroke-width="2" stroke-miterlimit="10"/>
<path d="M30.7503 30.7502C31.6938 30.7502 32.4587 29.9853 32.4587 29.0418C32.4587 28.0983 31.6938 27.3335 30.7503 27.3335C29.8068 27.3335 29.042 28.0983 29.042 29.0418C29.042 29.9853 29.8068 30.7502 30.7503 30.7502Z" fill="#44475C"/>
</svg>
