<svg width="20" height="20" viewBox="0 0 20 20" fill="none" xmlns="http://www.w3.org/2000/svg">
<path d="M13.9997 14.9998C14.9331 14.9998 15.3998 14.9998 15.7563 14.8182C16.0699 14.6584 16.3249 14.4034 16.4847 14.0898C16.6663 13.7333 16.6663 13.2666 16.6663 12.3332V4.33317C16.6663 3.39975 16.6663 2.93304 16.4847 2.57652C16.3249 2.26292 16.0699 2.00795 15.7563 1.84816C15.3998 1.6665 14.9331 1.6665 13.9997 1.6665H9.33301C8.39959 1.6665 7.93288 1.6665 7.57636 1.84816C7.26275 2.00795 7.00779 2.26292 6.848 2.57652C6.66634 2.93304 6.66634 3.39975 6.66634 4.33317M5.99967 18.3332H10.6663C11.5998 18.3332 12.0665 18.3332 12.423 18.1515C12.7366 17.9917 12.9916 17.7368 13.1514 17.4232C13.333 17.0666 13.333 16.5999 13.333 15.6665V7.6665C13.333 6.73308 13.333 6.26637 13.1514 5.90985C12.9916 5.59625 12.7366 5.34128 12.423 5.18149C12.0665 4.99984 11.5998 4.99984 10.6663 4.99984H5.99967C5.06625 4.99984 4.59954 4.99984 4.24302 5.18149C3.92942 5.34128 3.67445 5.59625 3.51466 5.90985C3.33301 6.26637 3.33301 6.73308 3.33301 7.6665V15.6665C3.33301 16.5999 3.33301 17.0666 3.51466 17.4232C3.67445 17.7368 3.92942 17.9917 4.24302 18.1515C4.59954 18.3332 5.06625 18.3332 5.99967 18.3332Z" stroke="#B7B7B7" stroke-width="2"/>
</svg>
