<svg width="18" height="13" viewBox="0 0 18 13" fill="none" xmlns="http://www.w3.org/2000/svg">
<rect width="18" height="13" rx="2" fill="white"/>
<mask id="mask0_397_1729" style="mask-type:luminance" maskUnits="userSpaceOnUse" x="0" y="0" width="18" height="13">
<rect width="18" height="13" rx="2" fill="white"/>
</mask>
<g mask="url(#mask0_397_1729)">
<rect width="18" height="13" fill="#30C6E0"/>
<path fill-rule="evenodd" clip-rule="evenodd" d="M8.9999 9.09999C10.4201 9.09999 11.5713 7.93593 11.5713 6.49999C11.5713 5.06405 10.4201 3.89999 8.9999 3.89999C7.57973 3.89999 6.42847 5.06405 6.42847 6.49999C6.42847 7.93593 7.57973 9.09999 8.9999 9.09999Z" fill="#FFCD4B"/>
<path fill-rule="evenodd" clip-rule="evenodd" d="M7.9509 11.1472L8.99993 9.56385L10.049 11.1472L10.3147 9.26043L11.9392 10.2267L11.369 8.41028L13.2474 8.56818L11.9541 7.18177L13.7142 6.5L11.9541 5.81823L13.2474 4.43182L11.369 4.58972L11.9392 2.77327L10.3147 3.73957L10.049 1.85284L8.99993 3.43615L7.9509 1.85284L7.68518 3.73957L6.06062 2.77327L6.63084 4.58972L4.75251 4.43182L6.04572 5.81823L4.28564 6.5L6.04572 7.18177L4.75251 8.56818L6.63084 8.41028L6.06062 10.2267L7.68518 9.26043L7.9509 11.1472ZM11.9999 6.5C11.9999 8.17526 10.6568 9.53333 8.99993 9.53333C7.34308 9.53333 5.99993 8.17526 5.99993 6.5C5.99993 4.82474 7.34308 3.46667 8.99993 3.46667C10.6568 3.46667 11.9999 4.82474 11.9999 6.5Z" fill="#FFCD4B"/>
<path fill-rule="evenodd" clip-rule="evenodd" d="M0.857178 1.2C0.857178 1.01591 1.00642 0.866669 1.19051 0.866669H1.38099C1.56508 0.866669 1.71432 1.01591 1.71432 1.2V1.4C1.71432 1.5841 1.56508 1.73334 1.38099 1.73334H1.19051C1.00642 1.73334 0.857178 1.5841 0.857178 1.4V1.2ZM0.857178 2.93334C0.857178 2.74924 1.00642 2.6 1.19051 2.6H1.38099C1.56508 2.6 1.71432 2.74924 1.71432 2.93334V3.13334C1.71432 3.31743 1.56508 3.46667 1.38099 3.46667H1.19051C1.00642 3.46667 0.857178 3.31743 0.857178 3.13334V2.93334ZM1.19051 4.33334C1.00642 4.33334 0.857178 4.48257 0.857178 4.66667V4.86667C0.857178 5.05076 1.00642 5.2 1.19051 5.2H1.38099C1.56508 5.2 1.71432 5.05076 1.71432 4.86667V4.66667C1.71432 4.48257 1.56508 4.33334 1.38099 4.33334H1.19051ZM0.857178 6.4C0.857178 6.21591 1.00642 6.06667 1.19051 6.06667H1.38099C1.56508 6.06667 1.71432 6.21591 1.71432 6.4V6.6C1.71432 6.7841 1.56508 6.93334 1.38099 6.93334H1.19051C1.00642 6.93334 0.857178 6.7841 0.857178 6.6V6.4ZM1.19051 7.8C1.00642 7.8 0.857178 7.94924 0.857178 8.13334V8.33334C0.857178 8.51743 1.00642 8.66667 1.19051 8.66667H1.38099C1.56508 8.66667 1.71432 8.51743 1.71432 8.33334V8.13334C1.71432 7.94924 1.56508 7.8 1.38099 7.8H1.19051ZM0.857178 9.86667C0.857178 9.68257 1.00642 9.53333 1.19051 9.53333H1.38099C1.56508 9.53333 1.71432 9.68257 1.71432 9.86667V10.0667C1.71432 10.2508 1.56508 10.4 1.38099 10.4H1.19051C1.00642 10.4 0.857178 10.2508 0.857178 10.0667V9.86667ZM1.19051 11.2667C1.00642 11.2667 0.857178 11.4159 0.857178 11.6V11.8C0.857178 11.9841 1.00642 12.1333 1.19051 12.1333H1.38099C1.56508 12.1333 1.71432 11.9841 1.71432 11.8V11.6C1.71432 11.4159 1.56508 11.2667 1.38099 11.2667H1.19051ZM1.71432 10.7333C1.71432 10.5492 1.86356 10.4 2.04765 10.4H2.23813C2.42223 10.4 2.57146 10.5492 2.57146 10.7333V10.9333C2.57146 11.1174 2.42222 11.2667 2.23813 11.2667H2.04765C1.86356 11.2667 1.71432 11.1174 1.71432 10.9333V10.7333ZM2.04765 8.66667C1.86356 8.66667 1.71432 8.81591 1.71432 9V9.2C1.71432 9.3841 1.86356 9.53334 2.04765 9.53334H2.23813C2.42222 9.53334 2.57146 9.3841 2.57146 9.2V9C2.57146 8.81591 2.42223 8.66667 2.23813 8.66667H2.04765ZM1.71432 7.26667C1.71432 7.08257 1.86356 6.93334 2.04765 6.93334H2.23813C2.42223 6.93334 2.57146 7.08257 2.57146 7.26667V7.46667C2.57146 7.65076 2.42222 7.8 2.23813 7.8H2.04765C1.86356 7.8 1.71432 7.65076 1.71432 7.46667V7.26667ZM2.04765 5.2C1.86356 5.2 1.71432 5.34924 1.71432 5.53334V5.73334C1.71432 5.91743 1.86356 6.06667 2.04765 6.06667H2.23813C2.42222 6.06667 2.57146 5.91743 2.57146 5.73334V5.53334C2.57146 5.34924 2.42223 5.2 2.23813 5.2H2.04765ZM1.71432 3.8C1.71432 3.61591 1.86356 3.46667 2.04765 3.46667H2.23813C2.42223 3.46667 2.57146 3.61591 2.57146 3.8V4C2.57146 4.1841 2.42222 4.33334 2.23813 4.33334H2.04765C1.86356 4.33334 1.71432 4.1841 1.71432 4V3.8ZM2.04765 1.73334C1.86356 1.73334 1.71432 1.88257 1.71432 2.06667V2.26667C1.71432 2.45076 1.86356 2.6 2.04765 2.6H2.23813C2.42222 2.6 2.57146 2.45076 2.57146 2.26667V2.06667C2.57146 1.88257 2.42223 1.73334 2.23813 1.73334H2.04765Z" fill="#FFCD4B"/>
</g>
</svg>
