<svg width="35" height="34" viewBox="0 0 35 34" fill="none" xmlns="http://www.w3.org/2000/svg">
<path d="M34.9829 16.9943C34.9829 19.3778 34.9335 21.768 34.997 24.1515C35.1028 28.3704 32.3728 31.6305 28.8949 33.0825C27.4982 33.6647 26.0308 33.9729 24.5141 33.9729C19.7665 33.9797 15.0118 34.0413 10.2642 33.9523C6.6876 33.8838 3.7459 32.4318 1.63663 29.569C0.529082 28.0622 0 26.35 0 24.4939C0 19.5832 0 14.6794 0 9.76869C0 5.76206 2.01051 2.96084 5.58005 1.13902C7.13203 0.351393 8.81804 0.0157945 10.5746 0.00894557C15.1811 0.00894557 19.7947 -0.0184502 24.4013 0.0226434C27.9779 0.0500392 30.9619 1.37873 33.1629 4.1731C34.3903 5.73466 34.9829 7.52909 34.9829 9.50158C34.9829 11.9946 34.9829 14.4945 34.9829 16.9943ZM2.60308 16.9943C2.60308 19.5079 2.60308 22.0146 2.60308 24.5282C2.60308 25.6514 2.87115 26.7061 3.47078 27.6581C5.04392 30.158 7.42126 31.3771 10.37 31.4251C15.1035 31.4935 19.8441 31.4524 24.5847 31.4387C25.7487 31.4387 26.8774 31.2059 27.9285 30.7196C30.7926 29.3909 32.3939 27.2746 32.3798 24.0967C32.3516 19.2339 32.3728 14.3712 32.3728 9.50843C32.3728 8.13179 31.9707 6.87159 31.1312 5.76206C29.5087 3.63204 27.2654 2.58415 24.5847 2.55675C19.8582 2.50196 15.1318 2.53621 10.4053 2.54305C9.3965 2.54305 8.42299 2.74167 7.4777 3.08412C4.88167 4.02243 2.46905 6.39901 2.58192 9.89882C2.66657 12.2686 2.60308 14.6314 2.60308 16.9943Z" fill="white"/>
<path d="M17.5299 24.2542C12.9798 24.2542 9.31151 20.7338 9.30445 16.3505C9.2974 12.0357 12.9939 8.5016 17.5158 8.5016C22.0518 8.49475 25.7342 12.022 25.7413 16.371C25.7413 20.7133 22.0659 24.2473 17.5299 24.2542ZM17.5299 21.7201C20.6268 21.7201 23.1382 19.3161 23.1311 16.3573C23.1241 13.426 20.6127 11.0289 17.5299 11.0289C14.433 11.0289 11.9075 13.4191 11.9075 16.371C11.9146 19.3298 14.433 21.7269 17.5299 21.7201Z" fill="white"/>
<path d="M26.6937 6.10449C27.6461 6.10449 28.4221 6.89212 28.4221 7.85782C28.415 8.82352 27.632 9.6043 26.6796 9.59745C25.7414 9.5906 24.9725 8.80982 24.9725 7.86467C24.9654 6.89897 25.7414 6.10449 26.6937 6.10449Z" fill="white"/>
</svg>
