<svg width="42" height="43" viewBox="0 0 42 43" fill="none" xmlns="http://www.w3.org/2000/svg">
<path d="M33.3375 9.42586C31.7331 7.80523 29.8221 6.52027 27.7159 5.64595C25.6097 4.77162 23.3505 4.32541 21.07 4.33336C11.515 4.33336 3.72752 12.1209 3.72752 21.6759C3.72752 24.7384 4.53252 27.7134 6.03752 30.3384L3.58752 39.3334L12.775 36.9184C15.3125 38.3009 18.165 39.0359 21.07 39.0359C30.625 39.0359 38.4125 31.2484 38.4125 21.6934C38.4125 17.0559 36.61 12.6984 33.3375 9.42586ZM21.07 36.0959C18.48 36.0959 15.9425 35.3959 13.72 34.0834L13.195 33.7684L7.73502 35.2034L9.18752 29.8834L8.83753 29.3409C7.39858 27.0431 6.63452 24.387 6.63252 21.6759C6.63252 13.7309 13.1075 7.25586 21.0525 7.25586C24.9025 7.25586 28.525 8.76086 31.2375 11.4909C32.5806 12.8278 33.645 14.418 34.369 16.1693C35.0929 17.9207 35.4621 19.7983 35.455 21.6934C35.49 29.6384 29.015 36.0959 21.07 36.0959ZM28.98 25.3159C28.5425 25.1059 26.4075 24.0559 26.0225 23.8984C25.62 23.7584 25.34 23.6884 25.0425 24.1084C24.745 24.5459 23.9225 25.5259 23.6775 25.8059C23.4325 26.1034 23.17 26.1384 22.7325 25.9109C22.295 25.7009 20.895 25.2284 19.25 23.7584C17.955 22.6034 17.0975 21.1859 16.835 20.7484C16.59 20.3109 16.8 20.0834 17.0275 19.8559C17.22 19.6634 17.465 19.3484 17.675 19.1034C17.885 18.8584 17.9725 18.6659 18.1125 18.3859C18.2525 18.0884 18.1825 17.8434 18.0775 17.6334C17.9725 17.4234 17.0975 15.2884 16.7475 14.4134C16.3975 13.5734 16.03 13.6784 15.7675 13.6609H14.9275C14.63 13.6609 14.175 13.7659 13.7725 14.2034C13.3875 14.6409 12.2675 15.6909 12.2675 17.8259C12.2675 19.9609 13.825 22.0259 14.035 22.3059C14.245 22.6034 17.0975 26.9784 21.4375 28.8509C22.47 29.3059 23.275 29.5684 23.905 29.7609C24.9375 30.0934 25.8825 30.0409 26.635 29.9359C27.475 29.8134 29.2075 28.8859 29.5575 27.8709C29.925 26.8559 29.925 25.9984 29.8025 25.8059C29.68 25.6134 29.4175 25.5259 28.98 25.3159Z" fill="white"/>
</svg>
