<svg width="79" height="62" viewBox="0 0 79 62" fill="none" xmlns="http://www.w3.org/2000/svg">
<path d="M66.25 11H13.5833C9.94746 11 7 13.3132 7 16.1667V47.1667C7 50.0201 9.94746 52.3333 13.5833 52.3333H66.25C69.8859 52.3333 72.8333 50.0201 72.8333 47.1667V16.1667C72.8333 13.3132 69.8859 11 66.25 11Z" stroke="white" stroke-width="2" stroke-miterlimit="10"/>
<path d="M13.583 21.3076H26.7497" stroke="white" stroke-width="2" stroke-miterlimit="10"/>
<path d="M53.083 41.9741H66.2497" stroke="white" stroke-width="2" stroke-miterlimit="10"/>
<path d="M39.9167 39.4165C44.4615 39.4165 48.1458 35.9467 48.1458 31.6665C48.1458 27.3863 44.4615 23.9165 39.9167 23.9165C35.3718 23.9165 31.6875 27.3863 31.6875 31.6665C31.6875 35.9467 35.3718 39.4165 39.9167 39.4165Z" stroke="white" stroke-width="2" stroke-miterlimit="10"/>
</svg>
