<svg width="35" height="34" viewBox="0 0 35 34" fill="none" xmlns="http://www.w3.org/2000/svg">
<path d="M34.9829 16.9943C34.9829 19.3778 34.9335 21.768 34.997 24.1515C35.1028 28.3704 32.3728 31.6305 28.8949 33.0825C27.4982 33.6647 26.0308 33.9729 24.5141 33.9729C19.7665 33.9797 15.0118 34.0413 10.2642 33.9523C6.6876 33.8838 3.7459 32.4318 1.63663 29.569C0.529082 28.0622 0 26.35 0 24.4939C0 19.5832 0 14.6794 0 9.76869C0 5.76206 2.01051 2.96084 5.58005 1.13902C7.13203 0.351393 8.81804 0.0157945 10.5746 0.00894557C15.1811 0.00894557 19.7947 -0.0184502 24.4013 0.0226434C27.9779 0.0500392 30.9619 1.37873 33.1629 4.1731C34.3903 5.73466 34.9829 7.52909 34.9829 9.50158C34.9829 11.9946 34.9829 14.4945 34.9829 16.9943ZM2.60308 16.9943C2.60308 19.5079 2.60308 22.0146 2.60308 24.5282C2.60308 25.6514 2.87115 26.7061 3.47078 27.6581C5.04392 30.158 7.42126 31.3771 10.37 31.4251C15.1035 31.4935 19.8441 31.4524 24.5847 31.4387C25.7487 31.4387 26.8774 31.2059 27.9285 30.7196C30.7926 29.3909 32.3939 27.2746 32.3798 24.0967C32.3516 19.2339 32.3728 14.3712 32.3728 9.50843C32.3728 8.13179 31.9707 6.87159 31.1312 5.76206C29.5087 3.63204 27.2654 2.58415 24.5847 2.55675C19.8582 2.50196 15.1318 2.53621 10.4053 2.54305C9.3965 2.54305 8.42299 2.74167 7.4777 3.08412C4.88167 4.02243 2.46905 6.39901 2.58192 9.89882C2.66657 12.2686 2.60308 14.6314 2.60308 16.9943Z" fill="#2C2A2C"/>
<path d="M17.5302 24.254C12.9801 24.254 9.31175 20.7337 9.3047 16.3504C9.29764 12.0355 12.9942 8.50147 17.5161 8.50147C22.0521 8.49463 25.7345 12.0218 25.7415 16.3709C25.7415 20.7131 22.0662 24.2472 17.5302 24.254ZM17.5302 21.7199C20.6271 21.7199 23.1384 19.316 23.1314 16.3572C23.1243 13.4259 20.6129 11.0287 17.5302 11.0287C14.4333 11.0287 11.9078 13.419 11.9078 16.3709C11.9148 19.3297 14.4333 21.7268 17.5302 21.7199Z" fill="#2C2A2C"/>
<path d="M26.694 6.10449C27.6463 6.10449 28.4223 6.89212 28.4223 7.85782C28.4153 8.82352 27.6322 9.6043 26.6799 9.59745C25.7416 9.5906 24.9727 8.80982 24.9727 7.86467C24.9656 6.89897 25.7416 6.10449 26.694 6.10449Z" fill="#2C2A2C"/>
</svg>
