<svg width="19" height="19" viewBox="0 0 19 19" fill="none" xmlns="http://www.w3.org/2000/svg">
<g clip-path="url(#clip0_397_1728)">
<path d="M17.5012 18.9154C17.8917 19.306 18.5249 19.306 18.9154 18.9154C19.3059 18.5249 19.3059 17.8917 18.9154 17.5012L17.5012 18.9154ZM14.1348 7.96323C14.1348 11.3717 11.3717 14.1348 7.9632 14.1348V16.1348C12.4762 16.1348 16.1348 12.4763 16.1348 7.96323H14.1348ZM7.9632 14.1348C4.55473 14.1348 1.79163 11.3717 1.79163 7.96323H-0.208374C-0.208374 12.4763 3.45016 16.1348 7.9632 16.1348V14.1348ZM1.79163 7.96323C1.79163 4.55476 4.55473 1.79166 7.9632 1.79166V-0.208344C3.45016 -0.208344 -0.208374 3.45019 -0.208374 7.96323H1.79163ZM7.9632 1.79166C11.3717 1.79166 14.1348 4.55476 14.1348 7.96323H16.1348C16.1348 3.45019 12.4762 -0.208344 7.9632 -0.208344V1.79166ZM12.3786 13.7929L17.5012 18.9154L18.9154 17.5012L13.7929 12.3787L12.3786 13.7929Z" fill="#7A7A7A"/>
</g>
<defs>
<clipPath id="clip0_397_1728">
<rect width="19" height="19" fill="white"/>
</clipPath>
</defs>
</svg>
