<svg width="38" height="39" viewBox="0 0 38 39" fill="none" xmlns="http://www.w3.org/2000/svg">
<g clip-path="url(#clip0_240_1065)">
<path fill-rule="evenodd" clip-rule="evenodd" d="M38 19.8334C38 30.3268 29.4934 38.8334 19 38.8334C8.50659 38.8334 0 30.3268 0 19.8334C0 9.33996 8.50659 0.833374 19 0.833374C29.4934 0.833374 38 9.33996 38 19.8334ZM19.6809 14.86C17.8328 15.6287 14.1394 17.2196 8.6005 19.6328C7.70107 19.9905 7.22991 20.3404 7.18702 20.6825C7.11453 21.2607 7.83863 21.4884 8.82466 21.7985C8.95879 21.8407 9.09776 21.8844 9.24023 21.9307C10.2103 22.246 11.5153 22.6149 12.1937 22.6296C12.8091 22.6429 13.4959 22.3892 14.2542 21.8685C19.4293 18.3751 22.1008 16.6094 22.2685 16.5713C22.3868 16.5445 22.5508 16.5107 22.6619 16.6095C22.773 16.7082 22.7621 16.8952 22.7503 16.9454C22.6786 17.2512 19.8361 19.8937 18.3652 21.2612C17.9067 21.6875 17.5814 21.9899 17.515 22.059C17.366 22.2137 17.2142 22.36 17.0683 22.5007C16.167 23.3695 15.4912 24.021 17.1057 25.085C17.8816 25.5962 18.5024 26.019 19.1218 26.4408C19.7983 26.9015 20.4729 27.361 21.3459 27.9332C21.5683 28.079 21.7807 28.2304 21.9876 28.3779C22.7748 28.9391 23.482 29.4433 24.3558 29.3629C24.8635 29.3162 25.3879 28.8388 25.6542 27.4149C26.2837 24.05 27.5209 16.7593 27.8068 13.7549C27.8319 13.4917 27.8004 13.1548 27.7751 13.007C27.7498 12.8591 27.6969 12.6484 27.5047 12.4924C27.277 12.3077 26.9256 12.2687 26.7684 12.2715C26.0538 12.2841 24.9574 12.6653 19.6809 14.86Z" fill="white"/>
</g>
<defs>
<clipPath id="clip0_240_1065">
<rect width="38" height="38" fill="white" transform="translate(0 0.833374)"/>
</clipPath>
</defs>
</svg>
